<svg width="239" height="235" viewBox="0 0 239 235" fill="none" xmlns="http://www.w3.org/2000/svg">
<path opacity="0.16" d="M121.214 235C164.588 235 199.749 230.711 199.749 225.421C199.749 220.13 164.588 215.841 121.214 215.841C77.8408 215.841 42.6797 220.13 42.6797 225.421C42.6797 230.711 77.8408 235 121.214 235Z" fill="black"/>
<path opacity="0.07" d="M199.994 25.3901C194.628 20.5871 188.807 16.319 182.612 12.6466L131.505 89.4455L200.952 26.2707C200.639 25.9737 200.322 25.6921 199.994 25.3901ZM154.258 1.53119C146.289 -0.128324 138.098 -0.441558 130.025 0.604487L131.505 89.4404L154.258 1.53119ZM100.693 12.1038C95.812 15.5318 91.3449 19.5144 87.3815 23.9718C85.9957 25.5249 84.5706 27.0814 83.1063 28.6412L131.51 89.4506L100.693 12.1038ZM58.7662 51.128C55.4472 53.6997 52.0005 56.1023 48.4393 58.3266C40.7748 63.0676 32.5061 66.585 24.7494 72.6317L131.505 89.4506L58.7662 51.128ZM0.194193 121.85C-0.742754 135.709 1.88377 150.711 6.96786 164.278L131.505 89.4506L0.194193 121.85ZM131.505 89.4506L42.5975 207.122C55.5304 212.754 71.0796 213.778 87.192 212.539L131.505 89.4506ZM131.505 89.4506L135.734 204.792C144.873 203.815 156.035 204.117 167.595 203.62L131.505 89.4506ZM231.313 169.373L131.505 89.4506L209.215 194.21C218.262 189.146 226.039 181.369 231.313 169.373ZM235.537 100.443L131.505 89.4506L238.578 128.224C238.151 118.909 237.135 109.63 235.537 100.443ZM218.687 49.4077L131.505 89.4506L227.837 70.1587C225.374 62.9973 222.314 56.0558 218.687 49.4077Z" fill="black"/>
<path d="M221.739 162.026C221.739 162.026 216.214 160.157 214.571 159.015C212.927 157.873 208.724 153.655 207.746 150.403C206.902 147.402 206.342 144.329 206.072 141.223C205.826 138.704 204.771 138.054 203.225 140.005C201.679 141.955 201.177 145.125 201.602 147.173C202.027 149.221 203.307 151.56 203.138 151.97C202.969 152.38 202.728 153.189 202.728 153.189C202.728 153.189 197.772 152.62 195.013 151.97C192.253 151.32 190.056 151.074 189.893 152.375C189.729 153.675 190.297 155.708 190.461 157.09C190.625 158.472 192.734 164.565 193.794 165.942C194.545 167.014 195.416 167.997 196.39 168.871C197.04 169.357 197.04 169.762 198.586 169.926C199.896 170.043 201.199 170.233 202.488 170.494C203.056 170.658 203.624 171.226 206.307 171.144C207.993 171.086 209.674 170.924 211.34 170.658L219.383 173.658L221.739 162.026Z" fill="white" stroke="#263238" stroke-width="0.258086" stroke-miterlimit="10"/>
<path d="M219.138 160.479L215.805 174.943L221.253 177.134L224.012 162.107L219.138 160.479Z" fill="white" stroke="#263238" stroke-width="0.258086" stroke-miterlimit="10"/>
<path d="M232.859 163.244L222.225 160.643L218.324 177.867L232.798 184.62L232.859 183.314V163.244Z" fill="#263238" stroke="#263238" stroke-width="0.258086" stroke-miterlimit="10"/>
<path d="M202.401 153.9C202.401 153.9 201.669 158.298 201.669 159.322C201.669 160.346 203.942 163.224 204.741 163.382" stroke="#263238" stroke-width="0.258086" stroke-miterlimit="10"/>
<path d="M200.773 164.954C200.773 164.954 201.915 165.359 201.587 166.337C201.259 167.315 198.822 168.692 197.686 169.342C196.549 169.992 196.15 169.91 194.844 169.178C194.077 168.754 193.496 168.058 193.216 167.228C194.035 167.207 194.851 167.127 195.658 166.987L200.773 164.954Z" fill="white" stroke="#263238" stroke-width="0.258086" stroke-miterlimit="10"/>
<path d="M191.429 162.835C191.429 162.835 191.429 166.572 192.325 166.9C193.18 167.23 194.091 167.395 195.008 167.386C195.576 167.304 199.396 166.004 200.128 165.517C200.86 165.031 201.592 163.981 201.187 162.998L200.778 162.026C199.543 162.237 198.293 162.345 197.04 162.348C194.992 162.348 191.598 161.698 191.352 161.944C191.106 162.189 191.429 162.835 191.429 162.835Z" fill="white" stroke="#263238" stroke-width="0.258086" stroke-miterlimit="10"/>
<path d="M190.2 157.786C190.038 157.89 189.907 158.036 189.821 158.208C189.736 158.38 189.698 158.572 189.714 158.764C189.714 159.496 188.741 161.688 189.878 162.42C191.014 163.152 194.588 163.72 195.32 163.72C196.052 163.72 200.358 162.184 200.763 162.015C201.167 161.846 201.172 160.387 201.008 159.819C200.845 159.251 199.385 159.087 199.385 159.087C199.385 159.087 193.139 158.938 190.2 157.786Z" fill="white" stroke="#263238" stroke-width="0.258086" stroke-miterlimit="10"/>
<path d="M192.325 152.84C192.325 152.84 194.926 154.791 195.397 154.955L199.38 156.337C199.38 156.337 199.892 156.578 199.892 157.556C199.883 157.977 199.723 158.381 199.441 158.694C199.159 159.007 198.774 159.208 198.356 159.261C197.547 159.425 194.618 159.911 193.564 159.507C192.126 158.796 190.742 157.981 189.422 157.069C188.69 156.557 188.608 155.928 189.012 155.021C189.364 154.146 189.663 153.25 189.908 152.339" fill="white"/>
<path d="M192.325 152.84C192.325 152.84 194.926 154.791 195.397 154.955L199.38 156.337C199.38 156.337 199.892 156.578 199.892 157.556C199.883 157.977 199.723 158.381 199.441 158.694C199.159 159.007 198.774 159.208 198.356 159.261C197.547 159.425 194.618 159.911 193.564 159.507C192.126 158.796 190.742 157.981 189.422 157.069C188.69 156.557 188.608 155.928 189.012 155.021C189.364 154.146 189.663 153.25 189.908 152.339" stroke="#263238" stroke-width="0.258086" stroke-miterlimit="10"/>
<path d="M205.56 36.3826C205.56 36.3826 199.974 38.0773 197.993 38.0978C196.011 38.1182 190.113 37.1403 187.43 35.0616C184.989 33.1209 182.736 30.9541 180.703 28.59C179.039 26.6803 177.8 26.7673 177.677 29.2505C177.554 31.7337 179.003 34.5957 180.518 36.0139C182.034 37.4322 184.455 38.5739 184.563 39.0142C184.67 39.4545 184.942 40.243 184.942 40.243C184.942 40.243 180.58 42.6647 177.953 43.7399C175.327 44.8151 173.401 45.9005 174.026 47.0525C174.651 48.2045 176.294 49.5254 177.231 50.5545C178.168 51.5836 183.431 55.3058 185.095 55.8178C186.33 56.249 187.61 56.5393 188.91 56.6831C189.724 56.6831 189.934 57.0313 191.311 56.2684C192.442 55.5984 193.612 54.9949 194.813 54.4611C195.371 54.2614 196.165 54.3945 198.295 52.7664C199.634 51.7372 200.908 50.6257 202.109 49.4384L210.403 47.201L205.56 36.3826Z" fill="white" stroke="#263238" stroke-width="0.258086" stroke-miterlimit="10"/>
<path d="M202.539 36.6385L208.248 50.3395L213.951 48.9571L207.449 35.123L202.539 36.6385Z" fill="white" stroke="#263238" stroke-width="0.258086" stroke-miterlimit="10"/>
<path d="M215.308 30.9043L205.145 34.9746L211.995 51.2509L227.693 48.3223L226.987 47.2266L215.308 30.9043Z" fill="#263238" stroke="#263238" stroke-width="0.258086" stroke-miterlimit="10"/>
<path d="M185.08 41.052C185.08 41.052 187.041 45.0455 187.64 45.9057C188.239 46.7658 191.736 47.754 192.514 47.411" stroke="#263238" stroke-width="0.258086" stroke-miterlimit="10"/>
<path d="M190.2 50.959C190.2 50.959 191.362 50.6262 191.664 51.6093C191.966 52.5923 190.789 55.1318 190.241 56.3247C189.693 57.5177 189.319 57.6866 187.835 57.8607C186.964 57.9639 186.087 57.7354 185.377 57.2207C186.031 56.7287 186.647 56.1878 187.22 55.6028L190.2 50.959Z" fill="white" stroke="#263238" stroke-width="0.258086" stroke-miterlimit="10"/>
<path d="M181.379 54.6761C181.379 54.6761 183.549 57.7173 184.451 57.4613C185.338 57.2314 186.175 56.8372 186.918 56.2991C187.333 55.8997 189.683 52.623 189.99 51.7987C190.297 50.9744 190.282 49.6944 189.386 49.1363L188.49 48.5782C187.609 49.4699 186.655 50.2867 185.638 51.0205C183.985 52.198 180.831 53.6572 180.774 53.9951C180.718 54.333 181.379 54.6761 181.379 54.6761Z" fill="white" stroke="#263238" stroke-width="0.258086" stroke-miterlimit="10"/>
<path d="M177.452 51.2918C177.381 51.4708 177.359 51.6657 177.39 51.8558C177.421 52.046 177.502 52.2243 177.626 52.3721C178.051 52.966 178.532 55.316 179.884 55.2495C181.235 55.1829 184.491 53.565 185.07 53.1401C185.649 52.7151 188.265 48.952 188.506 48.5833C188.746 48.2147 187.886 47.0473 187.425 46.6582C186.964 46.2691 185.679 47.0115 185.679 47.0115C185.679 47.0115 180.472 50.5135 177.452 51.2918Z" fill="white" stroke="#263238" stroke-width="0.258086" stroke-miterlimit="10"/>
<path d="M176.289 46.0285C176.289 46.0285 179.535 46.1002 180.026 45.9517C180.518 45.8033 184.071 44.7588 184.071 44.7588C184.071 44.7588 184.609 44.6718 185.177 45.4654C185.417 45.8137 185.522 46.2371 185.473 46.6571C185.424 47.0771 185.224 47.465 184.911 47.7488C184.348 48.3581 182.254 50.4522 181.158 50.7389C179.573 50.9971 177.971 51.1408 176.366 51.169C175.49 51.169 175.045 50.7133 174.83 49.7507C174.605 48.8357 174.326 47.9348 173.995 47.0525" fill="white"/>
<path d="M176.289 46.0285C176.289 46.0285 179.535 46.1002 180.026 45.9517C180.518 45.8033 184.071 44.7588 184.071 44.7588C184.071 44.7588 184.609 44.6718 185.177 45.4654C185.417 45.8137 185.522 46.2371 185.473 46.6571C185.424 47.0771 185.224 47.465 184.911 47.7488C184.348 48.3581 182.254 50.4522 181.158 50.7389C179.573 50.9971 177.971 51.1408 176.366 51.169C175.49 51.169 175.045 50.7133 174.83 49.7507C174.605 48.8357 174.326 47.9348 173.995 47.0525" stroke="#263238" stroke-width="0.258086" stroke-miterlimit="10"/>
<path d="M26.7925 160.188C26.7925 160.188 32.3169 158.319 33.9604 157.182C35.6039 156.046 39.792 151.817 40.7648 148.57C41.6232 145.571 42.1958 142.498 42.4748 139.39C42.7155 136.871 43.7753 136.221 45.3164 138.172C46.8575 140.123 47.3644 143.292 46.9394 145.34C46.5145 147.388 45.2345 149.728 45.4034 150.132C45.5724 150.537 45.8079 151.351 45.8079 151.351C45.8079 151.351 50.764 150.782 53.5288 150.132C56.2935 149.482 58.4848 149.236 58.6487 150.537C58.8125 151.837 58.2391 153.87 58.0804 155.252C57.9217 156.634 55.802 162.727 54.7473 164.109C53.9951 165.18 53.1224 166.161 52.1464 167.033C51.4961 167.545 51.4961 167.929 49.955 168.088C48.6454 168.207 47.3431 168.397 46.0537 168.656C45.4853 168.82 44.917 169.388 42.2342 169.306C40.5464 169.248 38.8639 169.086 37.1962 168.82L29.1528 171.825L26.7925 160.188Z" fill="white" stroke="#263238" stroke-width="0.258086" stroke-miterlimit="10"/>
<path d="M29.393 158.641L32.7209 173.105L27.2784 175.302L24.5137 160.269L29.393 158.641Z" fill="white" stroke="#263238" stroke-width="0.258086" stroke-miterlimit="10"/>
<path d="M15.6665 161.406L26.3006 158.805L30.202 176.029L15.7331 182.782L15.6665 181.476V161.406Z" fill="#263238" stroke="#263238" stroke-width="0.258086" stroke-miterlimit="10"/>
<path d="M46.1303 152.062C46.1303 152.062 46.8625 156.45 46.8625 157.505C46.8625 158.559 44.5841 161.406 43.7905 161.57" stroke="#263238" stroke-width="0.258086" stroke-miterlimit="10"/>
<path d="M47.753 163.111C47.753 163.111 46.6164 163.521 46.939 164.493C47.2615 165.466 49.7037 166.849 50.8404 167.499C51.977 168.149 52.3763 168.067 53.687 167.335C54.4539 166.914 55.0335 166.219 55.3101 165.389C54.4926 165.37 53.6779 165.287 52.873 165.144L47.753 163.111Z" fill="white" stroke="#263238" stroke-width="0.258086" stroke-miterlimit="10"/>
<path d="M57.0821 161.002C57.0821 161.002 57.0821 164.739 56.1912 165.062C55.338 165.403 54.4272 165.577 53.5083 165.574C52.94 165.492 49.1206 164.196 48.3884 163.705C47.6563 163.213 46.9241 162.169 47.3337 161.186L47.7382 160.213C48.9729 160.425 50.2231 160.532 51.4757 160.536C53.5237 160.536 56.9182 159.885 57.164 160.131C57.4097 160.377 57.0821 161.002 57.0821 161.002Z" fill="white" stroke="#263238" stroke-width="0.258086" stroke-miterlimit="10"/>
<path d="M58.3159 155.964C58.4849 156.06 58.6228 156.203 58.7135 156.375C58.8042 156.548 58.8438 156.742 58.8279 156.936C58.8279 157.669 59.8058 159.86 58.6691 160.592C57.5325 161.324 53.9281 161.882 53.1959 161.882C52.4638 161.882 48.1579 160.346 47.7535 160.177C47.349 160.008 47.349 158.549 47.5128 157.981C47.6767 157.413 49.1358 157.254 49.1358 157.254C49.1358 157.254 55.3924 157.1 58.3159 155.964Z" fill="white" stroke="#263238" stroke-width="0.258086" stroke-miterlimit="10"/>
<path d="M56.2064 151.008C56.2064 151.008 53.6055 152.953 53.1345 153.117C52.6634 153.281 49.1512 154.499 49.1512 154.499C49.1512 154.499 48.6392 154.745 48.6392 155.718C48.6471 156.139 48.8068 156.544 49.0889 156.857C49.3711 157.17 49.7568 157.371 50.1751 157.423C50.9892 157.587 53.9127 158.073 54.9725 157.669C56.4162 156.957 57.8057 156.141 59.1299 155.226C59.862 154.74 59.944 154.09 59.5344 153.178C59.1853 152.302 58.8878 151.407 58.6435 150.496" fill="white"/>
<path d="M56.2064 151.008C56.2064 151.008 53.6055 152.953 53.1345 153.117C52.6634 153.281 49.1512 154.499 49.1512 154.499C49.1512 154.499 48.6392 154.745 48.6392 155.718C48.6471 156.139 48.8068 156.544 49.0889 156.857C49.3711 157.17 49.7568 157.371 50.1751 157.423C50.9892 157.587 53.9127 158.073 54.9725 157.669C56.4162 156.957 57.8057 156.141 59.1299 155.226C59.862 154.74 59.944 154.09 59.5344 153.178C59.1853 152.302 58.8878 151.407 58.6435 150.496" stroke="#263238" stroke-width="0.258086" stroke-miterlimit="10"/>
<path d="M32.798 41.2465C32.798 41.2465 38.3788 42.9412 40.3653 42.9616C42.3518 42.9821 48.2398 42.0042 50.9277 39.9255C53.3688 37.9848 55.6214 35.818 57.6553 33.4539C59.3193 31.5442 60.5583 31.6312 60.6761 34.1144C60.7938 36.5976 59.35 39.4596 57.8396 40.8778C56.3292 42.2961 53.8973 43.4378 53.7949 43.8781C53.6925 44.3184 53.416 45.1069 53.416 45.1069C53.416 45.1069 57.7782 47.5235 60.4047 48.6038C63.0312 49.6841 64.9563 50.7593 64.3317 51.9113C63.7071 53.0633 62.0636 54.3842 61.1266 55.4133C60.1897 56.4424 54.9264 60.1697 53.2624 60.6817C52.0276 61.1129 50.748 61.4032 49.4481 61.547C48.634 61.547 48.4241 61.8951 47.0468 61.1272C45.9127 60.4624 44.7437 59.8591 43.5448 59.3198C42.9867 59.1253 42.1931 59.2533 40.0581 57.6302C38.7212 56.6003 37.449 55.4888 36.2489 54.3023L27.9546 52.0649L32.798 41.2465Z" fill="white" stroke="#263238" stroke-width="0.258086" stroke-miterlimit="10"/>
<path d="M35.8137 41.5024L30.105 55.2034L24.4014 53.821L30.9037 39.9869L35.8137 41.5024Z" fill="white" stroke="#263238" stroke-width="0.258086" stroke-miterlimit="10"/>
<path d="M23.0448 35.7682L33.2078 39.8385L26.3574 56.1148L10.6597 53.1862L11.3662 52.0854L23.0448 35.7682Z" fill="#263238" stroke="#263238" stroke-width="0.258086" stroke-miterlimit="10"/>
<path d="M53.2574 45.8903C53.2574 45.8903 51.2964 49.8838 50.6974 50.7388C50.0984 51.5939 46.6015 52.5871 45.8232 52.2748" stroke="#263238" stroke-width="0.258086" stroke-miterlimit="10"/>
<path d="M48.1478 55.8229C48.1478 55.8229 46.9856 55.4901 46.6835 56.4732C46.3815 57.4562 47.5591 59.9957 48.1069 61.1835C48.6547 62.3713 49.0285 62.5454 50.5133 62.7195C51.3836 62.8196 52.2599 62.5914 52.9708 62.0795C52.3165 61.5874 51.7004 61.0466 51.1276 60.4616L48.1478 55.8229Z" fill="white" stroke="#263238" stroke-width="0.258086" stroke-miterlimit="10"/>
<path d="M56.9746 59.54C56.9746 59.54 54.7986 62.5812 53.9027 62.3252C53.0131 62.0971 52.1755 61.7008 51.4349 61.1579C51.0201 60.7636 48.6701 57.4818 48.3629 56.6626C48.0557 55.8434 48.0762 54.5532 48.9722 54.0002L49.8682 53.4421C50.7475 54.3344 51.7015 55.1497 52.72 55.8792C54.3737 57.0619 57.5276 58.5211 57.5839 58.859C57.6402 59.1969 56.9746 59.54 56.9746 59.54Z" fill="white" stroke="#263238" stroke-width="0.258086" stroke-miterlimit="10"/>
<path d="M60.8959 56.1506C60.9686 56.329 60.9913 56.5239 60.9615 56.7142C60.9317 56.9046 60.8506 57.0832 60.7269 57.2309C60.302 57.8248 59.8156 60.1749 58.469 60.1083C57.1225 60.0418 53.8611 58.4239 53.2826 57.9989C52.704 57.5739 50.0826 53.8108 49.8471 53.4422C49.6116 53.0735 50.4615 51.9062 50.9274 51.5171C51.3933 51.128 52.6733 51.8652 52.6733 51.8652C52.6733 51.8652 57.8547 55.3877 60.8959 56.1506Z" fill="white" stroke="#263238" stroke-width="0.258086" stroke-miterlimit="10"/>
<path d="M62.0637 50.8925C62.0637 50.8925 58.8126 50.9642 58.3211 50.8157C57.8296 50.6672 54.2814 49.6176 54.2814 49.6176C54.2814 49.6176 53.7695 49.5357 53.1755 50.3293C52.9363 50.6774 52.831 51.1002 52.879 51.5199C52.927 51.9395 53.125 52.3277 53.4367 52.6128C54.005 53.2169 56.099 55.3161 57.1947 55.6028C58.7795 55.862 60.3813 56.004 61.9869 56.0278C62.8625 56.0585 63.3079 55.5772 63.4973 54.6147C63.7226 53.6981 64.0012 52.7954 64.3319 51.9114" fill="white"/>
<path d="M62.0637 50.8925C62.0637 50.8925 58.8126 50.9642 58.3211 50.8157C57.8296 50.6672 54.2814 49.6176 54.2814 49.6176C54.2814 49.6176 53.7695 49.5357 53.1755 50.3293C52.9363 50.6774 52.831 51.1002 52.879 51.5199C52.927 51.9395 53.125 52.3277 53.4367 52.6128C54.005 53.2169 56.099 55.3161 57.1947 55.6028C58.7795 55.862 60.3813 56.004 61.9869 56.0278C62.8625 56.0585 63.3079 55.5772 63.4973 54.6147C63.7226 53.6981 64.0012 52.7954 64.3319 51.9114" stroke="#263238" stroke-width="0.258086" stroke-miterlimit="10"/>
<path d="M107.769 115.47C107.769 115.47 104.185 131.168 104.042 138.551C103.898 145.934 104.308 172.542 104.446 178.251C104.585 183.959 107.093 202.489 107.093 204.158C107.093 205.827 107.513 209.032 107.513 209.032L106.397 215.022C105.305 215.866 104.14 216.611 102.915 217.249C100.407 218.642 97.4832 220.454 96.6487 221.427C96.547 221.544 96.4749 221.684 96.4386 221.835C96.4022 221.986 96.4026 222.143 96.4398 222.293C96.4769 222.444 96.5497 222.583 96.652 222.7C96.7543 222.816 96.8831 222.907 97.0276 222.963C98.0205 223.352 99.0665 223.589 100.13 223.665C102.496 223.803 106.397 223.803 108.486 223.245C110.575 222.687 112.249 220.879 113.222 220.173L114.2 219.476L114.338 221.012C114.807 220.943 115.272 220.849 115.731 220.731C116.753 220.436 117.735 220.017 118.654 219.482C118.654 219.482 118.792 217.111 118.792 215.718C118.792 214.326 118.096 211.817 117.958 211.264C117.82 210.711 117.958 205.688 117.543 204.019C117.128 202.35 116.847 202.765 116.565 199.703C116.284 196.642 118.792 167.663 118.654 166.828C118.516 165.994 122.197 140.891 122.197 140.891C122.197 140.891 129.237 173.658 131.464 179.93C133.691 186.202 134.808 198.316 134.808 199.155C134.808 199.995 136.062 209.877 136.62 211.274C137.178 212.672 138.709 216.983 138.709 216.983C138.709 216.983 140.936 220.326 141.909 221.995C142.882 223.665 146.23 225.067 148.734 225.477C151.237 225.887 153.193 226.035 153.342 222.692C153.49 219.348 152.231 217.121 150.137 215.59C148.043 214.06 147.633 212.667 147.633 212.667C147.785 210.622 147.785 208.568 147.633 206.523C147.351 204.152 145.82 202.34 145.682 197.466C145.544 192.592 144.566 166.961 143.732 162.922C142.897 158.882 141.796 131.859 141.934 128.106C142.073 124.353 141.581 113.868 141.581 113.868L107.667 113.484L107.769 115.47Z" fill="#263238" stroke="#263238" stroke-width="0.258086" stroke-miterlimit="10"/>
<path d="M121.081 59.3505C121.081 59.3505 115.905 62.4225 112.239 64.2349C108.573 66.0474 104.098 67.1021 103.643 68.1312C103.187 69.1603 95.2767 86.0151 93.7868 88.3037C92.2969 90.5923 88.7437 95.0672 89.4297 97.5862C90.1158 100.105 92.983 103.546 94.8159 103.32C96.6488 103.095 100.32 102.056 101.81 99.4242C103.3 96.7926 106.853 88.3037 106.853 88.3037C106.853 88.3037 107.426 96.214 107.309 100.11C107.191 104.007 107.196 107.217 106.965 109.162C106.735 111.108 105.706 113.519 106.162 114.205C106.617 114.892 107.186 115.583 107.769 115.47C108.353 115.357 116.939 115.24 119.545 115.352C122.151 115.465 134.101 115.352 136.625 115.47C139.149 115.588 141.325 114.323 141.551 113.862C141.776 113.402 142.242 112.716 142.011 110.197C141.781 107.678 142.242 99.9976 142.928 97.0178C143.614 94.038 147.741 82.5745 147.741 82.5745C147.741 82.5745 158.631 91.1709 160.924 91.857C163.218 92.543 169.403 91.5139 171.466 88.9949C173.53 86.4759 174.216 84.5201 172.956 82.8049C171.697 81.0897 167.109 79.4821 162.297 74.3212C157.484 69.1603 155.641 66.7591 152.328 65.1514C149.015 63.5437 142.242 61.3729 140.634 60.6817C139.026 59.9905 138.586 59.6577 137.562 59.1918C136.538 58.7259 134.122 57.8197 129.652 57.7019C126.716 57.7024 123.807 58.2619 121.081 59.3505Z" fill="#009B47" stroke="#263238" stroke-width="0.258086" stroke-miterlimit="10"/>
<path d="M104.539 80.1835C104.697 80.7364 106.848 88.3037 106.848 88.3037L103.673 82.0113" stroke="#263238" stroke-width="0.258086" stroke-miterlimit="10"/>
<path d="M147.761 82.5746C147.285 82.5746 142.779 80.0146 142.779 80.0146" stroke="#263238" stroke-width="0.258086" stroke-miterlimit="10"/>
<path d="M140.485 79.7125C140.485 79.7125 142.303 82.0831 143.885 82.5541" stroke="#263238" stroke-width="0.258086" stroke-miterlimit="10"/>
<path d="M120.436 66.3802L121.875 71.8124C121.875 71.8124 117.318 94.591 116.601 98.436C116.165 100.759 115.871 103.107 115.721 105.466L119.714 113.376L124.752 104.826C124.752 104.826 124.271 94.038 124.112 85.4109C123.954 76.7839 124.271 72.6111 124.189 72.3858C124.107 72.1606 129.227 68.3872 129.227 68.3872C129.227 68.3872 132.181 65.1104 132.34 64.5523C132.499 63.9943 130.266 64.7111 129.78 65.1923C129.236 65.653 128.591 65.9796 127.897 66.1458C127.204 66.3121 126.481 66.3135 125.786 66.1498C123.708 65.7504 120.989 63.4362 120.59 64.5523C120.351 65.131 120.297 65.7697 120.436 66.3802Z" fill="#263238" stroke="#263238" stroke-width="0.258086" stroke-miterlimit="10"/>
<path d="M123.872 57.1131C123.631 57.2718 121.716 57.7531 121.076 59.3505C120.436 60.9479 117.159 68.3001 116.202 69.4982C115.245 70.6963 116.76 70.215 118.04 69.4163C119.32 68.6176 120.436 65.5047 121.153 66.8563C121.87 68.208 123.954 68.7712 123.954 68.7712C123.954 68.7712 128.265 67.9725 129.227 67.3325C129.883 66.8746 130.498 66.3607 131.065 65.7965C131.065 65.7965 134.741 71.3107 135.776 71.7868C136.81 72.263 136.979 71.4694 137.056 70.5888C137.434 67.3787 138.049 64.2009 138.894 61.081C139.918 57.6456 137.936 56.5243 136.656 55.0907C135.376 53.6571 133.938 54.6095 132.504 54.7682C131.07 54.9269 123.872 57.1131 123.872 57.1131Z" fill="#009B47" stroke="#263238" stroke-width="0.258086" stroke-miterlimit="10"/>
<path d="M121.68 32.5067C121.68 32.5067 119.182 36.3006 119.632 37.2222C120.083 38.1437 120.093 39.352 119.632 39.9972C119.284 40.4213 119.03 40.9143 118.886 41.4438C118.742 41.9732 118.712 42.5272 118.798 43.0691C118.982 44.6409 118.06 52.5922 119.448 53.5189C120.34 54.0993 121.302 54.5655 122.31 54.9064C122.31 54.9064 123.882 68.2182 124.44 67.8496C124.998 67.4809 132.959 59.3249 133.881 57.5636C134.803 55.8024 135.929 53.3141 135.929 53.3141C135.929 53.3141 139.073 47.3033 140.921 44.8048C142.769 42.3062 144.899 37.6881 144.254 35.2817C143.609 32.8753 140.276 31.1192 138.704 29.8239C137.132 28.5285 138.151 25.5743 135.929 24.0947C133.707 22.615 131.029 22.2464 129.273 22.8915C127.517 23.5366 127.425 24.9394 125.295 23.5366C123.165 22.1337 121.137 20.7667 117.902 22.3385C114.666 23.9103 114.016 29.4552 115.956 30.9349C117.897 32.4145 121.68 32.5067 121.68 32.5067Z" fill="white" stroke="#263238" stroke-width="0.258086" stroke-miterlimit="10"/>
<path d="M138.694 29.8239C137.122 28.5336 138.141 25.5743 135.919 24.0947C133.697 22.615 131.019 22.2464 129.263 22.8915C127.507 23.5366 127.414 24.9394 125.285 23.5366C123.155 22.1337 121.127 20.7667 117.891 22.3385C114.656 23.9103 114.005 29.4552 115.946 30.9349C117.886 32.4145 121.68 32.5067 121.68 32.5067C121.68 32.5067 124.455 31.2114 126.288 30.1976C128.121 29.1839 132.299 30.8427 133.036 31.493C133.773 32.1432 132.667 31.6773 132.483 32.8753C132.299 34.0734 134.608 36.0241 135.627 36.9713C136.646 37.9185 135.443 38.5431 135.166 39.7463C134.89 40.9495 135.995 41.4103 136.646 40.9495C137.296 40.4887 139.323 37.8775 140.066 39.3776C140.808 40.8778 141.914 43.0742 139.881 44.646C137.849 46.2179 136.364 45.8492 136.364 45.8492C136.364 45.8492 135.704 49.853 137.624 50.1653C138.62 48.3311 139.712 46.5504 140.895 44.8304C142.749 42.337 144.873 37.7137 144.228 35.3073C143.583 32.9009 140.265 31.1192 138.694 29.8239Z" fill="#263238" stroke="#263238" stroke-width="0.258086" stroke-miterlimit="10"/>
<path d="M126.672 37.4066C127.262 37.1864 127.892 37.0922 128.521 37.1301" stroke="#263238" stroke-width="0.172057" stroke-miterlimit="10"/>
<path d="M121.941 38.3179C121.485 38.4144 121.044 38.5729 120.63 38.7889" stroke="#263238" stroke-width="0.172057" stroke-miterlimit="10"/>
<path d="M121.972 35.7937C122.301 36.4231 122.397 37.1484 122.243 37.8417C121.941 38.8657 119.079 41.1031 119.115 41.5383C119.151 41.9735 120.794 42.8848 120.764 43.2534C120.733 43.6221 120.631 44.2313 120.631 44.2313" stroke="#263238" stroke-width="0.258086" stroke-miterlimit="10"/>
<path d="M128.228 38.6866C128.562 38.6866 128.832 38.3542 128.832 37.9442C128.832 37.5342 128.562 37.2018 128.228 37.2018C127.895 37.2018 127.624 37.5342 127.624 37.9442C127.624 38.3542 127.895 38.6866 128.228 38.6866Z" fill="#263238" stroke="#263238" stroke-width="0.172057" stroke-miterlimit="10"/>
<path d="M127.051 39.1575C127.864 38.8172 128.73 38.6231 129.611 38.5841" stroke="#263238" stroke-width="0.258086" stroke-miterlimit="10"/>
<path d="M124.916 34.7032C124.916 34.7032 126.897 32.8652 128.433 33.2338C129.969 33.6024 130.553 35.0821 130.307 35.0872C130.062 35.0923 129.283 33.9506 128.444 33.8636C127.604 33.7765 127.005 34.1759 126.278 34.5445C125.551 34.9131 125.105 35.1691 124.916 34.7032Z" fill="#263238" stroke="#263238" stroke-width="0.172057" stroke-miterlimit="10"/>
<path d="M122.105 36.1624C122.082 36.0374 122.033 35.9187 121.961 35.8138C121.89 35.709 121.797 35.6204 121.689 35.5537C121.58 35.4871 121.46 35.444 121.334 35.4271C121.208 35.4102 121.08 35.42 120.958 35.4558C120.052 35.594 119.366 37.2427 119.642 37.2222C119.919 37.2017 120.221 36.1624 120.927 36.0651C121.634 35.9678 122.105 37.0737 122.105 36.1624Z" fill="#263238" stroke="#263238" stroke-width="0.172057" stroke-miterlimit="10"/>
<path d="M120.569 46.3203C120.569 46.3203 122.018 46.1513 123.902 45.9158C125.787 45.6803 128.439 45.3116 128.879 43.9651C129.13 43.3127 129.243 42.6154 129.212 41.9171" stroke="#263238" stroke-width="0.258086" stroke-miterlimit="10"/>
<path d="M128.193 41.8147C128.744 41.7696 129.3 41.8041 129.841 41.9171" stroke="#263238" stroke-width="0.258086" stroke-miterlimit="10"/>
<path d="M135.955 48.4606C135.69 49.7087 134.957 50.8079 133.907 51.5325C132.227 52.6026 119.893 53.8263 120.303 53.9799C120.713 54.1335 122.315 54.9014 122.315 54.9014L122.796 59.279C124.739 57.5594 126.899 56.1031 129.222 54.9475C133.308 52.8279 135.857 52.1264 135.955 48.4606Z" fill="#263238" stroke="#263238" stroke-width="0.172057" stroke-miterlimit="10"/>
<path d="M142.836 108.246C142.836 108.246 140.542 108.133 139.969 108.02C139.395 107.908 137.562 106.182 136.758 106.3C135.954 106.418 134.47 108.02 133.896 109.372C133.323 110.724 133.092 111.42 133.092 111.42C133.092 111.42 131.044 113.253 132.068 114.492C133.092 115.731 134.25 115.296 134.25 115.296C134.25 115.296 134.936 116.443 135.852 116.555C136.532 116.631 137.216 116.67 137.9 116.673C138.493 116.855 139.113 116.933 139.733 116.904C140.223 116.796 140.689 116.602 141.11 116.33C141.596 116.387 142.087 116.263 142.488 115.982C142.907 115.649 144.94 113.57 145.99 112.5L146.609 111.86L142.836 108.246Z" fill="white" stroke="#263238" stroke-width="0.258086" stroke-miterlimit="10"/>
<path d="M161.974 84.6378C161.974 84.6378 157.735 89.3379 156.342 91.6265C154.123 95.1187 151.713 98.4859 149.123 101.713C147.52 103.546 141.904 108.021 141.904 108.021C141.904 108.021 143.619 111.686 144.884 112.26C145.619 112.598 146.386 112.866 147.172 113.059L151.78 109.623C151.78 109.623 160.484 102.967 165.092 99.1938C169.7 95.4204 176.095 90.367 176.555 88.1911C177.016 86.0151 176.668 84.8682 174.38 83.1479C172.955 82.0937 171.367 81.2807 169.679 80.7416" fill="#009B47"/>
<path d="M161.974 84.6378C161.974 84.6378 157.735 89.3379 156.342 91.6265C154.123 95.1187 151.713 98.4859 149.123 101.713C147.52 103.546 141.904 108.021 141.904 108.021C141.904 108.021 143.619 111.686 144.884 112.26C145.619 112.598 146.386 112.866 147.172 113.059L151.78 109.623C151.78 109.623 160.484 102.967 165.092 99.1938C169.7 95.4204 176.095 90.367 176.555 88.1911C177.016 86.0151 176.668 84.8682 174.38 83.1479C172.955 82.0937 171.367 81.2807 169.679 80.7416" stroke="#263238" stroke-width="0.258086" stroke-miterlimit="10"/>
<path d="M145.472 105.153C145.472 105.153 146.496 110.197 150.054 110.197" stroke="#263238" stroke-width="0.258086" stroke-miterlimit="10"/>
<path d="M95.5329 68.0187C95.5329 68.0187 96.004 72.048 96.2446 73.8656C96.3133 74.7816 96.5824 75.6713 97.0331 76.4717C97.0331 76.4717 93.3211 84.766 93.1624 85.0066C93.0037 85.2472 89.133 92.5124 88.4981 93.3777C87.8633 94.2429 86.3683 97.0128 87.3154 98.7536C88.2626 100.494 89.7628 104.048 91.7391 104.124C93.7154 104.201 96.4801 103.019 98.395 101.913C100.31 100.807 100.924 100.095 101.083 96.936C101.242 93.777 101.16 88.0888 101.718 85.0834C102.276 82.078 102.665 78.9395 103.059 77.7363C103.453 76.5331 105.747 76.9478 106.536 76.4717C107.324 75.9955 108.036 74.9715 109.459 74.3367C110.694 73.8673 112.036 73.759 113.33 74.0243C113.806 74.1831 114.671 73.4714 114.436 72.601C114.2 71.7306 112.618 71.2596 111.036 71.4132C109.454 71.5668 108.036 72.048 107.642 71.8125C107.247 71.577 106.853 67.3838 106.853 67.3838C106.853 67.3838 101.221 67.8599 99.2654 67.9367C97.3095 68.0135 95.5329 68.0187 95.5329 68.0187Z" fill="white" stroke="#263238" stroke-width="0.258086" stroke-miterlimit="10"/>
<path d="M104.221 64.9365C104.221 64.9365 104.303 70.1537 104.303 70.6247C104.304 70.7346 104.328 70.843 104.373 70.9433C104.418 71.0436 104.483 71.1336 104.564 71.2076C104.645 71.2816 104.741 71.3381 104.845 71.3734C104.949 71.4088 105.059 71.4223 105.168 71.4132C105.568 71.3364 106.592 71.7306 106.832 70.5479C107.073 69.3652 107.539 66.0424 107.303 65.2539C107.068 64.4654 104.933 64.148 104.221 64.9365Z" fill="white" stroke="#263238" stroke-width="0.258086" stroke-miterlimit="10"/>
<path d="M104.222 64.9365C104.222 64.9365 101.697 64.3067 100.986 64.7009C100.274 65.0952 101.38 70.7066 101.457 71.1776C101.534 71.6487 102.645 71.8893 103.116 71.7306C103.587 71.5719 104.303 71.2596 104.303 70.6247C104.303 69.9898 104.222 64.9365 104.222 64.9365Z" fill="white" stroke="#263238" stroke-width="0.258086" stroke-miterlimit="10"/>
<path d="M100.433 64.8595C100.433 64.8595 98.7738 64.5421 98.2977 65.0951C97.8215 65.648 97.6679 66.4365 97.8215 67.8598C98.0304 69.2607 98.4571 70.6202 99.0861 71.8892C99.4036 72.3653 100.433 72.4422 101.062 72.2066C101.692 71.9711 101.457 71.1826 101.457 71.1826C101.457 71.1826 101.139 70.8652 101.062 68.4179C100.986 65.9706 100.986 64.7059 100.986 64.7059L100.433 64.8595Z" fill="white" stroke="#263238" stroke-width="0.258086" stroke-miterlimit="10"/>
<path d="M97.6673 65.8068C97.3499 65.8836 95.3736 65.9655 95.2968 66.7539C95.22 67.5424 95.9266 71.2595 96.244 71.6537C96.5614 72.048 97.4267 71.8892 97.7441 71.7305C98.0616 71.5718 98.6145 71.3363 98.5326 70.8601C98.4507 70.384 97.6673 65.8068 97.6673 65.8068Z" fill="white" stroke="#263238" stroke-width="0.258086" stroke-miterlimit="10"/>
<path d="M98.2975 81.4481C97.7299 81.3577 97.1956 81.1214 96.7469 80.7624C96.2981 80.4034 95.9503 79.934 95.7375 79.4001C94.6521 81.8168 93.2697 84.8734 93.1775 85.0321C93.0188 85.2676 89.1481 92.5379 88.5133 93.4032C87.8784 94.2684 86.3834 97.0383 87.3306 98.7791C88.2778 100.52 89.7779 104.073 91.7542 104.15C93.7305 104.227 96.4952 103.044 98.4101 101.938C100.325 100.832 100.939 100.121 101.098 96.9615C101.257 93.8025 101.175 88.1143 101.733 85.1089C101.999 83.6343 102.245 82.1291 102.45 80.8286C101.116 81.2927 99.7081 81.5028 98.2975 81.4481Z" fill="#009B47" stroke="#263238" stroke-width="0.258086" stroke-miterlimit="10"/>
<path d="M101.932 72.7596C101.932 72.7596 100.586 73.9424 100.432 74.9715C100.352 75.6291 100.491 76.2947 100.826 76.8658" fill="white"/>
<path d="M101.932 72.7596C101.932 72.7596 100.586 73.9424 100.432 74.9715C100.352 75.6291 100.491 76.2947 100.826 76.8658" stroke="#263238" stroke-width="0.258086" stroke-miterlimit="10"/>
</svg>
