<svg width="428" height="926" viewBox="0 0 428 926" fill="none" xmlns="http://www.w3.org/2000/svg">
<rect width="428" height="926" fill="#009B47"/>
<path d="M201.601 487.577V485.731H194.078V496.073H196.105V491.97H200.844V490.152H196.105V487.577H201.601ZM205.993 496.283C207.14 496.283 208.092 495.907 208.849 495.15C209.606 494.393 209.981 493.455 209.981 492.33C209.981 491.205 209.606 490.268 208.849 489.517C208.092 488.767 207.14 488.392 205.986 488.392C204.832 488.392 203.88 488.767 203.123 489.517C202.365 490.268 201.983 491.205 201.983 492.33C201.983 493.455 202.358 494.393 203.115 495.15C203.873 495.907 204.825 496.283 205.979 496.283H205.993ZM205.979 494.508C205.358 494.508 204.854 494.306 204.464 493.895C204.075 493.484 203.88 492.965 203.88 492.337C203.88 491.71 204.075 491.191 204.464 490.78C204.854 490.368 205.358 490.167 205.979 490.167C206.599 490.167 207.104 490.368 207.493 490.78C207.883 491.191 208.077 491.71 208.077 492.337C208.077 492.965 207.883 493.484 207.493 493.895C207.104 494.306 206.599 494.508 205.979 494.508ZM215.008 496.283C216.155 496.283 217.107 495.907 217.864 495.15C218.622 494.393 218.997 493.455 218.997 492.33C218.997 491.205 218.622 490.268 217.864 489.517C217.107 488.767 216.155 488.392 215.001 488.392C213.847 488.392 212.895 488.767 212.138 489.517C211.381 490.268 210.998 491.205 210.998 492.33C210.998 493.455 211.373 494.393 212.131 495.15C212.888 495.907 213.84 496.283 214.994 496.283H215.008ZM214.994 494.508C214.374 494.508 213.869 494.306 213.479 493.895C213.09 493.484 212.895 492.965 212.895 492.337C212.895 491.71 213.09 491.191 213.479 490.78C213.869 490.368 214.374 490.167 214.994 490.167C215.614 490.167 216.119 490.368 216.509 490.78C216.898 491.191 217.093 491.71 217.093 492.337C217.093 492.965 216.898 493.484 216.509 493.895C216.119 494.306 215.614 494.508 214.994 494.508ZM226.115 485.291V489.503C225.538 488.76 224.738 488.392 223.714 488.392C222.668 488.392 221.788 488.767 221.081 489.517C220.374 490.268 220.021 491.212 220.021 492.345C220.021 493.463 220.374 494.4 221.081 495.157C221.788 495.915 222.661 496.29 223.706 496.29C224.723 496.29 225.524 495.915 226.108 495.165V496.081H228.077V485.298L226.115 485.291ZM224.045 494.544C223.432 494.544 222.927 494.335 222.531 493.924C222.134 493.513 221.939 492.979 221.939 492.33C221.939 491.688 222.134 491.162 222.531 490.751C222.927 490.34 223.432 490.138 224.045 490.138C224.644 490.138 225.149 490.347 225.56 490.758C225.971 491.169 226.173 491.688 226.173 492.316C226.173 492.958 225.971 493.484 225.56 493.902C225.149 494.321 224.644 494.53 224.045 494.53V494.544ZM236.335 487.924C236.335 487.57 236.421 487.289 236.587 487.087C236.753 486.885 236.991 486.784 237.294 486.784C237.619 486.777 237.929 486.842 238.225 486.972L238.701 485.406C238.232 485.19 237.669 485.082 237.013 485.082C236.155 485.082 235.506 485.334 235.058 485.839C234.611 486.344 234.388 487.036 234.388 487.924V488.601H232.952V490.311H234.388V496.073H236.335V490.311H238.592V488.601H236.335V487.924ZM242.79 496.283C243.937 496.283 244.889 495.907 245.646 495.15C246.403 494.393 246.778 493.455 246.778 492.33C246.778 491.205 246.403 490.268 245.646 489.517C244.889 488.767 243.937 488.392 242.783 488.392C241.629 488.392 240.677 488.767 239.919 489.517C239.162 490.268 238.78 491.205 238.78 492.33C238.78 493.455 239.155 494.393 239.912 495.15C240.669 495.907 241.621 496.283 242.775 496.283H242.79ZM242.775 494.508C242.155 494.508 241.65 494.306 241.261 493.895C240.871 493.484 240.677 492.965 240.677 492.337C240.677 491.71 240.871 491.191 241.261 490.78C241.65 490.368 242.155 490.167 242.775 490.167C243.396 490.167 243.901 490.368 244.29 490.78C244.679 491.191 244.874 491.71 244.874 492.337C244.874 492.965 244.679 493.484 244.29 493.895C243.901 494.306 243.396 494.508 242.775 494.508ZM250.204 489.705V488.601H248.257V496.073H250.204V492.821C250.204 491.84 250.413 491.147 250.824 490.744C251.235 490.34 251.848 490.203 252.663 490.332V488.501C251.509 488.342 250.687 488.746 250.197 489.712L250.204 489.705ZM263.114 488.601L261.03 493.65L258.815 488.601H256.673L260.056 495.907L258.7 499.175H260.705L265.198 488.601H263.114ZM269.504 496.283C270.651 496.283 271.603 495.907 272.36 495.15C273.117 494.393 273.492 493.455 273.492 492.33C273.492 491.205 273.117 490.268 272.36 489.517C271.603 488.767 270.651 488.392 269.497 488.392C268.343 488.392 267.391 488.767 266.633 489.517C265.876 490.268 265.494 491.205 265.494 492.33C265.494 493.455 265.869 494.393 266.626 495.15C267.384 495.907 268.336 496.283 269.49 496.283H269.504ZM269.49 494.508C268.869 494.508 268.364 494.306 267.975 493.895C267.586 493.484 267.391 492.965 267.391 492.337C267.391 491.71 267.586 491.191 267.975 490.78C268.364 490.368 268.869 490.167 269.49 490.167C270.11 490.167 270.615 490.368 271.004 490.78C271.394 491.191 271.588 491.71 271.588 492.337C271.588 492.965 271.394 493.484 271.004 493.895C270.615 494.306 270.11 494.508 269.49 494.508ZM280.243 488.601V492.28C280.243 492.95 280.077 493.484 279.753 493.881C279.428 494.278 278.988 494.472 278.433 494.472C277.913 494.472 277.517 494.306 277.243 493.975C276.969 493.643 276.832 493.188 276.832 492.604V488.616H274.884V492.972C274.884 494.003 275.137 494.818 275.634 495.41C276.132 496.001 276.868 496.297 277.834 496.297C278.851 496.297 279.652 495.915 280.236 495.143V496.088H282.19V488.616L280.243 488.601ZM286.063 489.705V488.601H284.116V496.073H286.063V492.821C286.063 491.84 286.272 491.147 286.683 490.744C287.095 490.34 287.708 490.203 288.523 490.332V488.501C287.369 488.342 286.546 488.746 286.056 489.712L286.063 489.705ZM302.37 488.392C301.281 488.392 300.437 488.767 299.846 489.517C299.363 488.767 298.613 488.392 297.596 488.392C296.68 488.392 295.937 488.76 295.374 489.489V488.601H293.427V496.073H295.374V492.323C295.374 491.652 295.511 491.133 295.785 490.765C296.059 490.397 296.456 490.21 296.983 490.21C297.913 490.21 298.382 490.823 298.382 492.042V496.073H300.351V492.265C300.351 491.609 300.488 491.104 300.762 490.744C301.036 490.383 301.425 490.203 301.937 490.203C302.889 490.203 303.365 490.816 303.365 492.035V496.066H305.32V491.623C305.32 490.599 305.053 489.806 304.519 489.236C303.986 488.666 303.264 488.385 302.363 488.385L302.37 488.392ZM310.715 496.283C311.861 496.283 312.813 495.907 313.571 495.15C314.328 494.393 314.703 493.455 314.703 492.33C314.703 491.205 314.328 490.268 313.571 489.517C312.813 488.767 311.861 488.392 310.707 488.392C309.553 488.392 308.601 488.767 307.844 489.517C307.087 490.268 306.705 491.205 306.705 492.33C306.705 493.455 307.08 494.393 307.837 495.15C308.594 495.907 309.546 496.283 310.7 496.283H310.715ZM310.7 494.508C310.08 494.508 309.575 494.306 309.186 493.895C308.796 493.484 308.601 492.965 308.601 492.337C308.601 491.71 308.796 491.191 309.186 490.78C309.575 490.368 310.08 490.167 310.7 490.167C311.32 490.167 311.825 490.368 312.215 490.78C312.604 491.191 312.799 491.71 312.799 492.337C312.799 492.965 312.604 493.484 312.215 493.895C311.825 494.306 311.32 494.508 310.7 494.508ZM319.73 496.283C320.877 496.283 321.829 495.907 322.586 495.15C323.343 494.393 323.718 493.455 323.718 492.33C323.718 491.205 323.343 490.268 322.586 489.517C321.829 488.767 320.877 488.392 319.723 488.392C318.569 488.392 317.617 488.767 316.859 489.517C316.102 490.268 315.72 491.205 315.72 492.33C315.72 493.455 316.095 494.393 316.852 495.15C317.61 495.907 318.562 496.283 319.715 496.283H319.73ZM319.715 494.508C319.095 494.508 318.59 494.306 318.201 493.895C317.811 493.484 317.617 492.965 317.617 492.337C317.617 491.71 317.811 491.191 318.201 490.78C318.59 490.368 319.095 490.167 319.715 490.167C320.336 490.167 320.841 490.368 321.23 490.78C321.62 491.191 321.814 491.71 321.814 492.337C321.814 492.965 321.62 493.484 321.23 493.895C320.841 494.306 320.336 494.508 319.715 494.508ZM330.837 485.291V489.503C330.26 488.76 329.459 488.392 328.435 488.392C327.389 488.392 326.509 488.767 325.803 489.517C325.096 490.268 324.742 491.212 324.742 492.345C324.742 493.463 325.096 494.4 325.803 495.157C326.509 495.915 327.382 496.29 328.428 496.29C329.445 496.29 330.245 495.915 330.83 495.165V496.081H332.798V485.298L330.837 485.291ZM328.767 494.544C328.154 494.544 327.649 494.335 327.252 493.924C326.856 493.513 326.661 492.979 326.661 492.33C326.661 491.688 326.856 491.162 327.252 490.751C327.649 490.34 328.154 490.138 328.767 490.138C329.365 490.138 329.87 490.347 330.281 490.758C330.692 491.169 330.894 491.688 330.894 492.316C330.894 492.958 330.692 493.484 330.281 493.902C329.87 494.321 329.365 494.53 328.767 494.53V494.544Z" fill="#FFF2DE"/>
<path d="M201.601 487.577V487.624H201.647V487.577H201.601ZM201.601 485.731H201.647V485.685H201.601V485.731ZM194.078 485.731V485.685H194.032V485.731H194.078ZM194.078 496.073H194.032V496.12H194.078V496.073ZM196.105 496.073V496.12H196.151V496.073H196.105ZM196.105 491.97V491.923H196.059V491.97H196.105ZM200.844 491.97V492.016H200.89V491.97H200.844ZM200.844 490.152H200.89V490.106H200.844V490.152ZM196.105 490.152H196.059V490.198H196.105V490.152ZM196.105 487.577V487.531H196.059V487.577H196.105ZM201.647 487.577V485.731H201.555V487.577H201.647ZM201.601 485.685H194.078V485.777H201.601V485.685ZM194.032 485.731V496.073H194.125V485.731H194.032ZM194.078 496.12H196.105V496.027H194.078V496.12ZM196.151 496.073V491.97H196.059V496.073H196.151ZM196.105 492.016H200.844V491.923H196.105V492.016ZM200.89 491.97V490.152H200.797V491.97H200.89ZM200.844 490.106H196.105V490.198H200.844V490.106ZM196.151 490.152V487.577H196.059V490.152H196.151ZM196.105 487.624H201.601V487.531H196.105V487.624ZM205.993 496.329C207.151 496.329 208.115 495.95 208.882 495.183L208.816 495.117C208.069 495.865 207.129 496.236 205.993 496.236V496.329ZM208.882 495.183C209.648 494.416 210.028 493.467 210.028 492.33H209.935C209.935 493.444 209.564 494.369 208.816 495.117L208.882 495.183ZM210.028 492.33C210.028 491.194 209.648 490.244 208.882 489.485L208.817 489.55C209.564 490.291 209.935 491.217 209.935 492.33H210.028ZM208.882 489.485C208.115 488.725 207.151 488.346 205.986 488.346V488.439C207.129 488.439 208.069 488.81 208.817 489.55L208.882 489.485ZM205.986 488.346C204.821 488.346 203.857 488.725 203.09 489.485L203.155 489.55C203.903 488.81 204.843 488.439 205.986 488.439V488.346ZM203.09 489.485C202.324 490.244 201.937 491.193 201.937 492.33H202.029C202.029 491.217 202.407 490.291 203.155 489.55L203.09 489.485ZM201.937 492.33C201.937 493.467 202.316 494.416 203.083 495.183L203.148 495.117C202.4 494.369 202.029 493.444 202.029 492.33H201.937ZM203.083 495.183C203.849 495.95 204.814 496.329 205.979 496.329V496.236C204.836 496.236 203.896 495.865 203.148 495.117L203.083 495.183ZM205.979 496.329H205.993V496.236H205.979V496.329ZM205.979 494.462C205.37 494.462 204.877 494.264 204.498 493.863L204.43 493.927C204.83 494.348 205.347 494.555 205.979 494.555V494.462ZM204.498 493.863C204.117 493.462 203.926 492.954 203.926 492.337H203.834C203.834 492.975 204.032 493.506 204.43 493.927L204.498 493.863ZM203.926 492.337C203.926 491.72 204.117 491.213 204.498 490.811L204.43 490.748C204.032 491.168 203.834 491.7 203.834 492.337H203.926ZM204.498 490.811C204.877 490.411 205.37 490.213 205.979 490.213V490.12C205.347 490.12 204.83 490.326 204.43 490.748L204.498 490.811ZM205.979 490.213C206.588 490.213 207.08 490.411 207.46 490.811L207.527 490.748C207.128 490.326 206.61 490.12 205.979 490.12V490.213ZM207.46 490.811C207.84 491.213 208.031 491.72 208.031 492.337H208.124C208.124 491.7 207.925 491.168 207.527 490.748L207.46 490.811ZM208.031 492.337C208.031 492.954 207.84 493.462 207.46 493.863L207.527 493.927C207.925 493.506 208.124 492.975 208.124 492.337H208.031ZM207.46 493.863C207.08 494.264 206.588 494.462 205.979 494.462V494.555C206.61 494.555 207.128 494.348 207.527 493.927L207.46 493.863ZM215.008 496.329C216.166 496.329 217.13 495.95 217.897 495.183L217.832 495.117C217.084 495.865 216.144 496.236 215.008 496.236V496.329ZM217.897 495.183C218.664 494.416 219.043 493.467 219.043 492.33H218.95C218.95 493.444 218.58 494.369 217.832 495.117L217.897 495.183ZM219.043 492.33C219.043 491.194 218.664 490.244 217.897 489.485L217.832 489.55C218.58 490.291 218.95 491.217 218.95 492.33H219.043ZM217.897 489.485C217.13 488.725 216.166 488.346 215.001 488.346V488.439C216.144 488.439 217.084 488.81 217.832 489.55L217.897 489.485ZM215.001 488.346C213.836 488.346 212.872 488.725 212.105 489.485L212.17 489.55C212.918 488.81 213.858 488.439 215.001 488.439V488.346ZM212.105 489.485C211.339 490.244 210.952 491.193 210.952 492.33H211.045C211.045 491.217 211.422 490.291 212.17 489.55L212.105 489.485ZM210.952 492.33C210.952 493.467 211.331 494.416 212.098 495.183L212.163 495.117C211.415 494.369 211.045 493.444 211.045 492.33H210.952ZM212.098 495.183C212.865 495.95 213.829 496.329 214.994 496.329V496.236C213.851 496.236 212.911 495.865 212.163 495.117L212.098 495.183ZM214.994 496.329H215.008V496.236H214.994V496.329ZM214.994 494.462C214.385 494.462 213.893 494.264 213.513 493.863L213.446 493.927C213.845 494.348 214.363 494.555 214.994 494.555V494.462ZM213.513 493.863C213.133 493.462 212.941 492.954 212.941 492.337H212.849C212.849 492.975 213.047 493.506 213.446 493.927L213.513 493.863ZM212.941 492.337C212.941 491.72 213.133 491.213 213.513 490.811L213.446 490.748C213.047 491.168 212.849 491.7 212.849 492.337H212.941ZM213.513 490.811C213.893 490.411 214.385 490.213 214.994 490.213V490.12C214.363 490.12 213.845 490.326 213.446 490.748L213.513 490.811ZM214.994 490.213C215.603 490.213 216.095 490.411 216.475 490.811L216.542 490.748C216.143 490.326 215.625 490.12 214.994 490.12V490.213ZM216.475 490.811C216.855 491.213 217.046 491.72 217.046 492.337H217.139C217.139 491.7 216.941 491.168 216.542 490.748L216.475 490.811ZM217.046 492.337C217.046 492.954 216.855 493.462 216.475 493.863L216.542 493.927C216.941 493.506 217.139 492.975 217.139 492.337H217.046ZM216.475 493.863C216.095 494.264 215.603 494.462 214.994 494.462V494.555C215.625 494.555 216.143 494.348 216.542 493.927L216.475 493.863ZM226.115 485.291L226.115 485.245L226.069 485.245V485.291H226.115ZM226.115 489.503L226.079 489.531L226.161 489.638V489.503H226.115ZM226.108 495.165H226.154V495.03L226.071 495.136L226.108 495.165ZM226.108 496.081H226.062V496.127H226.108V496.081ZM228.077 496.081V496.127H228.123V496.081H228.077ZM228.077 485.298H228.123V485.252L228.077 485.252L228.077 485.298ZM224.045 494.544V494.591H224.092V494.544H224.045ZM224.045 494.53V494.484H223.999V494.53H224.045ZM226.069 485.291V489.503H226.161V485.291H226.069ZM226.152 489.475C225.565 488.719 224.75 488.346 223.714 488.346V488.439C224.725 488.439 225.511 488.801 226.079 489.531L226.152 489.475ZM223.714 488.346C222.655 488.346 221.763 488.726 221.047 489.486L221.115 489.549C221.813 488.809 222.68 488.439 223.714 488.439V488.346ZM221.047 489.486C220.332 490.245 219.975 491.202 219.975 492.345H220.067C220.067 491.223 220.417 490.29 221.115 489.549L221.047 489.486ZM219.975 492.345C219.975 493.473 220.332 494.422 221.047 495.189L221.115 495.126C220.417 494.378 220.067 493.452 220.067 492.345H219.975ZM221.047 495.189C221.763 495.956 222.648 496.336 223.706 496.336V496.243C222.673 496.243 221.813 495.874 221.115 495.126L221.047 495.189ZM223.706 496.336C224.736 496.336 225.551 495.955 226.145 495.193L226.071 495.136C225.497 495.874 224.71 496.243 223.706 496.243V496.336ZM226.062 495.165V496.081H226.154V495.165H226.062ZM226.108 496.127H228.077V496.034H226.108V496.127ZM228.123 496.081V485.298H228.031V496.081H228.123ZM228.077 485.252L226.115 485.245L226.115 485.337L228.077 485.345L228.077 485.252ZM224.045 494.498C223.444 494.498 222.951 494.293 222.564 493.892L222.497 493.956C222.903 494.377 223.421 494.591 224.045 494.591V494.498ZM222.564 493.892C222.177 493.491 221.986 492.969 221.986 492.33H221.893C221.893 492.989 222.091 493.535 222.497 493.956L222.564 493.892ZM221.986 492.33C221.986 491.698 222.177 491.184 222.564 490.783L222.497 490.719C222.091 491.14 221.893 491.678 221.893 492.33H221.986ZM222.564 490.783C222.951 490.382 223.444 490.184 224.045 490.184V490.091C223.421 490.091 222.904 490.298 222.497 490.719L222.564 490.783ZM224.045 490.184C224.632 490.184 225.125 490.388 225.527 490.791L225.593 490.725C225.173 490.305 224.656 490.091 224.045 490.091V490.184ZM225.527 490.791C225.929 491.192 226.127 491.699 226.127 492.316H226.219C226.219 491.677 226.013 491.146 225.593 490.725L225.527 490.791ZM226.127 492.316C226.127 492.947 225.929 493.461 225.527 493.87L225.593 493.935C226.013 493.507 226.219 492.968 226.219 492.316H226.127ZM225.527 493.87C225.125 494.279 224.632 494.484 224.045 494.484V494.576C224.656 494.576 225.173 494.362 225.593 493.935L225.527 493.87ZM223.999 494.53V494.544H224.092V494.53H223.999ZM237.294 486.784V486.83L237.295 486.83L237.294 486.784ZM238.225 486.972L238.206 487.014L238.254 487.035L238.269 486.985L238.225 486.972ZM238.701 485.406L238.745 485.42L238.757 485.381L238.72 485.364L238.701 485.406ZM234.388 488.601V488.648H234.434V488.601H234.388ZM232.952 488.601V488.555H232.906V488.601H232.952ZM232.952 490.311H232.906V490.357H232.952V490.311ZM234.388 490.311H234.434V490.265H234.388V490.311ZM234.388 496.073H234.341V496.12H234.388V496.073ZM236.335 496.073V496.12H236.381V496.073H236.335ZM236.335 490.311V490.265H236.289V490.311H236.335ZM238.592 490.311V490.357H238.639V490.311H238.592ZM238.592 488.601H238.639V488.555H238.592V488.601ZM236.335 488.601H236.289V488.648H236.335V488.601ZM236.381 487.924C236.381 487.577 236.466 487.308 236.623 487.116L236.552 487.058C236.377 487.27 236.289 487.563 236.289 487.924H236.381ZM236.623 487.116C236.779 486.927 237.002 486.83 237.294 486.83V486.738C236.98 486.738 236.728 486.843 236.552 487.058L236.623 487.116ZM237.295 486.83C237.613 486.823 237.916 486.887 238.206 487.014L238.243 486.929C237.942 486.797 237.625 486.73 237.293 486.738L237.295 486.83ZM238.269 486.985L238.745 485.42L238.656 485.393L238.18 486.958L238.269 486.985ZM238.72 485.364C238.244 485.145 237.674 485.036 237.013 485.036V485.128C237.664 485.128 238.22 485.236 238.681 485.449L238.72 485.364ZM237.013 485.036C236.145 485.036 235.482 485.291 235.024 485.809L235.093 485.87C235.529 485.377 236.164 485.128 237.013 485.128V485.036ZM235.024 485.809C234.567 486.324 234.341 487.029 234.341 487.924H234.434C234.434 487.044 234.655 486.364 235.093 485.87L235.024 485.809ZM234.341 487.924V488.601H234.434V487.924H234.341ZM234.388 488.555H232.952V488.648H234.388V488.555ZM232.906 488.601V490.311H232.999V488.601H232.906ZM232.952 490.357H234.388V490.265H232.952V490.357ZM234.341 490.311V496.073H234.434V490.311H234.341ZM234.388 496.12H236.335V496.027H234.388V496.12ZM236.381 496.073V490.311H236.289V496.073H236.381ZM236.335 490.357H238.592V490.265H236.335V490.357ZM238.639 490.311V488.601H238.546V490.311H238.639ZM238.592 488.555H236.335V488.648H238.592V488.555ZM236.381 488.601V487.924H236.289V488.601H236.381ZM242.79 496.329C243.948 496.329 244.912 495.95 245.679 495.183L245.613 495.117C244.865 495.865 243.925 496.236 242.79 496.236V496.329ZM245.679 495.183C246.445 494.416 246.825 493.467 246.825 492.33H246.732C246.732 493.444 246.361 494.369 245.613 495.117L245.679 495.183ZM246.825 492.33C246.825 491.194 246.445 490.244 245.678 489.485L245.613 489.55C246.361 490.291 246.732 491.217 246.732 492.33H246.825ZM245.678 489.485C244.912 488.725 243.948 488.346 242.783 488.346V488.439C243.925 488.439 244.865 488.81 245.613 489.55L245.678 489.485ZM242.783 488.346C241.618 488.346 240.654 488.725 239.887 489.485L239.952 489.55C240.7 488.81 241.64 488.439 242.783 488.439V488.346ZM239.887 489.485C239.12 490.244 238.734 491.193 238.734 492.33H238.826C238.826 491.217 239.204 490.291 239.952 489.55L239.887 489.485ZM238.734 492.33C238.734 493.467 239.113 494.416 239.879 495.183L239.945 495.117C239.197 494.369 238.826 493.444 238.826 492.33H238.734ZM239.879 495.183C240.646 495.95 241.61 496.329 242.775 496.329V496.236C241.633 496.236 240.693 495.865 239.945 495.117L239.879 495.183ZM242.775 496.329H242.79V496.236H242.775V496.329ZM242.775 494.462C242.166 494.462 241.674 494.264 241.294 493.863L241.227 493.927C241.626 494.348 242.144 494.555 242.775 494.555V494.462ZM241.294 493.863C240.914 493.462 240.723 492.954 240.723 492.337H240.63C240.63 492.975 240.829 493.506 241.227 493.927L241.294 493.863ZM240.723 492.337C240.723 491.72 240.914 491.213 241.294 490.811L241.227 490.748C240.829 491.168 240.63 491.7 240.63 492.337H240.723ZM241.294 490.811C241.674 490.411 242.166 490.213 242.775 490.213V490.12C242.144 490.12 241.626 490.326 241.227 490.748L241.294 490.811ZM242.775 490.213C243.385 490.213 243.877 490.411 244.256 490.811L244.324 490.748C243.924 490.326 243.407 490.12 242.775 490.12V490.213ZM244.256 490.811C244.637 491.213 244.828 491.72 244.828 492.337H244.92C244.92 491.7 244.722 491.168 244.324 490.748L244.256 490.811ZM244.828 492.337C244.828 492.954 244.637 493.462 244.256 493.863L244.324 493.927C244.722 493.506 244.92 492.975 244.92 492.337H244.828ZM244.256 493.863C243.877 494.264 243.385 494.462 242.775 494.462V494.555C243.407 494.555 243.924 494.348 244.324 493.927L244.256 493.863ZM250.204 489.705L250.237 489.738L250.25 489.724V489.705H250.204ZM250.204 488.601H250.25V488.555H250.204V488.601ZM248.257 488.601V488.555H248.21V488.601H248.257ZM248.257 496.073H248.21V496.12H248.257V496.073ZM250.204 496.073V496.12H250.25V496.073H250.204ZM252.663 490.332L252.656 490.378L252.71 490.387V490.332H252.663ZM252.663 488.501H252.71V488.46L252.67 488.455L252.663 488.501ZM250.197 489.712L250.156 489.691L250.23 489.745L250.197 489.712ZM250.25 489.705V488.601H250.158V489.705H250.25ZM250.204 488.555H248.257V488.648H250.204V488.555ZM248.21 488.601V496.073H248.303V488.601H248.21ZM248.257 496.12H250.204V496.027H248.257V496.12ZM250.25 496.073V492.821H250.158V496.073H250.25ZM250.25 492.821C250.25 491.844 250.459 491.167 250.857 490.777L250.792 490.711C250.367 491.127 250.158 491.835 250.158 492.821H250.25ZM250.857 490.777C251.253 490.387 251.849 490.25 252.656 490.378L252.671 490.287C251.848 490.156 251.217 490.292 250.792 490.711L250.857 490.777ZM252.71 490.332V488.501H252.617V490.332H252.71ZM252.67 488.455C252.086 488.374 251.582 488.436 251.161 488.643C250.739 488.85 250.404 489.201 250.156 489.691L250.238 489.733C250.48 489.257 250.801 488.923 251.202 488.726C251.603 488.529 252.087 488.468 252.657 488.546L252.67 488.455ZM250.23 489.745L250.237 489.738L250.171 489.672L250.164 489.679L250.23 489.745ZM263.114 488.601V488.555H263.083L263.071 488.584L263.114 488.601ZM261.03 493.65L260.987 493.669L261.031 493.768L261.072 493.668L261.03 493.65ZM258.815 488.601L258.858 488.583L258.846 488.555H258.815V488.601ZM256.673 488.601V488.555H256.601L256.631 488.621L256.673 488.601ZM260.056 495.907L260.099 495.925L260.106 495.906L260.098 495.888L260.056 495.907ZM258.7 499.175L258.657 499.157L258.631 499.221H258.7V499.175ZM260.705 499.175V499.221H260.736L260.748 499.193L260.705 499.175ZM265.198 488.601L265.241 488.62L265.268 488.555H265.198V488.601ZM263.071 488.584L260.987 493.632L261.072 493.668L263.157 488.619L263.071 488.584ZM261.072 493.631L258.858 488.583L258.773 488.62L260.987 493.669L261.072 493.631ZM258.815 488.555H256.673V488.648H258.815V488.555ZM256.631 488.621L260.014 495.927L260.098 495.888L256.715 488.582L256.631 488.621ZM260.013 495.89L258.657 499.157L258.743 499.192L260.099 495.925L260.013 495.89ZM258.7 499.221H260.705V499.128H258.7V499.221ZM260.748 499.193L265.241 488.62L265.156 488.583L260.662 499.157L260.748 499.193ZM265.198 488.555H263.114V488.648H265.198V488.555ZM269.504 496.329C270.662 496.329 271.626 495.95 272.393 495.183L272.327 495.117C271.579 495.865 270.64 496.236 269.504 496.236V496.329ZM272.393 495.183C273.159 494.416 273.539 493.467 273.539 492.33H273.446C273.446 493.444 273.075 494.369 272.327 495.117L272.393 495.183ZM273.539 492.33C273.539 491.194 273.159 490.244 272.393 489.485L272.327 489.55C273.075 490.291 273.446 491.217 273.446 492.33H273.539ZM272.393 489.485C271.626 488.725 270.662 488.346 269.497 488.346V488.439C270.64 488.439 271.58 488.81 272.327 489.55L272.393 489.485ZM269.497 488.346C268.332 488.346 267.368 488.725 266.601 489.485L266.666 489.55C267.414 488.81 268.354 488.439 269.497 488.439V488.346ZM266.601 489.485C265.834 490.244 265.448 491.193 265.448 492.33H265.54C265.54 491.217 265.918 490.291 266.666 489.55L266.601 489.485ZM265.448 492.33C265.448 493.467 265.827 494.416 266.594 495.183L266.659 495.117C265.911 494.369 265.54 493.444 265.54 492.33H265.448ZM266.594 495.183C267.36 495.95 268.324 496.329 269.49 496.329V496.236C268.347 496.236 267.407 495.865 266.659 495.117L266.594 495.183ZM269.49 496.329H269.504V496.236H269.49V496.329ZM269.49 494.462C268.88 494.462 268.388 494.264 268.009 493.863L267.941 493.927C268.341 494.348 268.858 494.555 269.49 494.555V494.462ZM268.009 493.863C267.628 493.462 267.437 492.954 267.437 492.337H267.344C267.344 492.975 267.543 493.506 267.941 493.927L268.009 493.863ZM267.437 492.337C267.437 491.72 267.628 491.213 268.009 490.811L267.941 490.748C267.543 491.168 267.344 491.7 267.344 492.337H267.437ZM268.009 490.811C268.388 490.411 268.88 490.213 269.49 490.213V490.12C268.858 490.12 268.341 490.326 267.941 490.748L268.009 490.811ZM269.49 490.213C270.099 490.213 270.591 490.411 270.971 490.811L271.038 490.748C270.638 490.326 270.121 490.12 269.49 490.12V490.213ZM270.971 490.811C271.351 491.213 271.542 491.72 271.542 492.337H271.635C271.635 491.7 271.436 491.168 271.038 490.748L270.971 490.811ZM271.542 492.337C271.542 492.954 271.351 493.462 270.971 493.863L271.038 493.927C271.436 493.506 271.635 492.975 271.635 492.337H271.542ZM270.971 493.863C270.591 494.264 270.099 494.462 269.49 494.462V494.555C270.121 494.555 270.638 494.348 271.038 493.927L270.971 493.863ZM280.243 488.601L280.243 488.555L280.197 488.555V488.601H280.243ZM276.832 488.616H276.878V488.57H276.832V488.616ZM274.884 488.616V488.57H274.838V488.616H274.884ZM280.236 495.143H280.282V495.005L280.199 495.115L280.236 495.143ZM280.236 496.088H280.189V496.134H280.236V496.088ZM282.19 496.088V496.134H282.237V496.088H282.19ZM282.19 488.616H282.237V488.57L282.191 488.57L282.19 488.616ZM280.197 488.601V492.28H280.289V488.601H280.197ZM280.197 492.28C280.197 492.943 280.033 493.465 279.717 493.852L279.788 493.91C280.121 493.503 280.289 492.958 280.289 492.28H280.197ZM279.717 493.852C279.402 494.236 278.976 494.426 278.433 494.426V494.519C279 494.519 279.454 494.319 279.788 493.91L279.717 493.852ZM278.433 494.426C277.924 494.426 277.542 494.264 277.278 493.945L277.207 494.004C277.492 494.349 277.903 494.519 278.433 494.519V494.426ZM277.278 493.945C277.013 493.624 276.878 493.181 276.878 492.604H276.785C276.785 493.195 276.924 493.662 277.207 494.004L277.278 493.945ZM276.878 492.604V488.616H276.785V492.604H276.878ZM276.832 488.57H274.884V488.662H276.832V488.57ZM274.838 488.616V492.972H274.931V488.616H274.838ZM274.838 492.972C274.838 494.011 275.092 494.838 275.599 495.44L275.67 495.38C275.181 494.799 274.931 493.996 274.931 492.972H274.838ZM275.599 495.44C276.108 496.044 276.858 496.343 277.834 496.343V496.251C276.878 496.251 276.156 495.958 275.67 495.38L275.599 495.44ZM277.834 496.343C278.865 496.343 279.679 495.955 280.273 495.171L280.199 495.115C279.624 495.874 278.837 496.251 277.834 496.251V496.343ZM280.189 495.143V496.088H280.282V495.143H280.189ZM280.236 496.134H282.19V496.042H280.236V496.134ZM282.237 496.088V488.616H282.144V496.088H282.237ZM282.191 488.57L280.243 488.555L280.243 488.648L282.19 488.662L282.191 488.57ZM286.063 489.705L286.096 489.738L286.11 489.724V489.705H286.063ZM286.063 488.601H286.11V488.555H286.063V488.601ZM284.116 488.601V488.555H284.07V488.601H284.116ZM284.116 496.073H284.07V496.12H284.116V496.073ZM286.063 496.073V496.12H286.11V496.073H286.063ZM288.523 490.332L288.515 490.378L288.569 490.387V490.332H288.523ZM288.523 488.501H288.569V488.46L288.529 488.455L288.523 488.501ZM286.056 489.712L286.015 489.691L286.089 489.745L286.056 489.712ZM286.11 489.705V488.601H286.017V489.705H286.11ZM286.063 488.555H284.116V488.648H286.063V488.555ZM284.07 488.601V496.073H284.162V488.601H284.07ZM284.116 496.12H286.063V496.027H284.116V496.12ZM286.11 496.073V492.821H286.017V496.073H286.11ZM286.11 492.821C286.11 491.844 286.318 491.167 286.716 490.777L286.651 490.711C286.227 491.127 286.017 491.835 286.017 492.821H286.11ZM286.716 490.777C287.113 490.387 287.708 490.25 288.515 490.378L288.53 490.287C287.707 490.156 287.077 490.292 286.651 490.711L286.716 490.777ZM288.569 490.332V488.501H288.476V490.332H288.569ZM288.529 488.455C287.945 488.374 287.441 488.436 287.02 488.643C286.598 488.85 286.264 489.201 286.015 489.691L286.097 489.733C286.339 489.257 286.66 488.923 287.061 488.726C287.462 488.529 287.946 488.468 288.516 488.546L288.529 488.455ZM286.089 489.745L286.096 489.738L286.031 489.672L286.023 489.679L286.089 489.745ZM302.37 488.392V488.439H302.482L302.403 488.36L302.37 488.392ZM299.846 489.517L299.807 489.543L299.842 489.597L299.882 489.546L299.846 489.517ZM295.374 489.489H295.328V489.624L295.411 489.517L295.374 489.489ZM295.374 488.601H295.42V488.555H295.374V488.601ZM293.427 488.601V488.555H293.381V488.601H293.427ZM293.427 496.073H293.381V496.12H293.427V496.073ZM295.374 496.073V496.12H295.42V496.073H295.374ZM298.382 496.073H298.335V496.12H298.382V496.073ZM300.351 496.073V496.12H300.397V496.073H300.351ZM303.365 496.066H303.319V496.112H303.365V496.066ZM305.32 496.066V496.112H305.366V496.066H305.32ZM302.363 488.385V488.339H302.251L302.33 488.418L302.363 488.385ZM302.37 488.346C301.269 488.346 300.411 488.726 299.809 489.489L299.882 489.546C300.463 488.809 301.293 488.439 302.37 488.439V488.346ZM299.885 489.492C299.392 488.727 298.626 488.346 297.596 488.346V488.439C298.599 488.439 299.333 488.808 299.807 489.543L299.885 489.492ZM297.596 488.346C296.665 488.346 295.909 488.721 295.338 489.46L295.411 489.517C295.965 488.8 296.694 488.439 297.596 488.439V488.346ZM295.42 489.489V488.601H295.328V489.489H295.42ZM295.374 488.555H293.427V488.648H295.374V488.555ZM293.381 488.601V496.073H293.473V488.601H293.381ZM293.427 496.12H295.374V496.027H293.427V496.12ZM295.42 496.073V492.323H295.328V496.073H295.42ZM295.42 492.323C295.42 491.658 295.557 491.15 295.822 490.793L295.748 490.738C295.466 491.116 295.328 491.647 295.328 492.323H295.42ZM295.822 490.793C296.087 490.438 296.469 490.256 296.983 490.256V490.164C296.443 490.164 296.032 490.356 295.748 490.738L295.822 490.793ZM296.983 490.256C297.437 490.256 297.771 490.405 297.994 490.697C298.219 490.991 298.335 491.437 298.335 492.042H298.428C298.428 491.428 298.31 490.958 298.068 490.641C297.824 490.321 297.459 490.164 296.983 490.164V490.256ZM298.335 492.042V496.073H298.428V492.042H298.335ZM298.382 496.12H300.351V496.027H298.382V496.12ZM300.397 496.073V492.265H300.304V496.073H300.397ZM300.397 492.265C300.397 491.615 300.533 491.121 300.799 490.772L300.725 490.716C300.443 491.087 300.304 491.603 300.304 492.265H300.397ZM300.799 490.772C301.063 490.424 301.438 490.249 301.937 490.249V490.156C301.413 490.156 301.009 490.342 300.725 490.716L300.799 490.772ZM301.937 490.249C302.403 490.249 302.745 490.398 302.972 490.69C303.201 490.984 303.319 491.43 303.319 492.035H303.412C303.412 491.42 303.292 490.95 303.045 490.633C302.796 490.314 302.424 490.156 301.937 490.156V490.249ZM303.319 492.035V496.066H303.412V492.035H303.319ZM303.365 496.112H305.32V496.02H303.365V496.112ZM305.366 496.066V491.623H305.274V496.066H305.366ZM305.366 491.623C305.366 490.591 305.097 489.785 304.553 489.205L304.486 489.268C305.009 489.827 305.274 490.607 305.274 491.623H305.366ZM304.553 489.205C304.009 488.624 303.275 488.339 302.363 488.339V488.431C303.254 488.431 303.962 488.709 304.486 489.268L304.553 489.205ZM302.33 488.418L302.337 488.425L302.403 488.36L302.396 488.352L302.33 488.418ZM310.715 496.329C311.873 496.329 312.837 495.95 313.603 495.183L313.538 495.117C312.79 495.865 311.85 496.236 310.715 496.236V496.329ZM313.603 495.183C314.37 494.416 314.749 493.467 314.749 492.33H314.657C314.657 493.444 314.286 494.369 313.538 495.117L313.603 495.183ZM314.749 492.33C314.749 491.194 314.37 490.244 313.603 489.485L313.538 489.55C314.286 490.291 314.657 491.217 314.657 492.33H314.749ZM313.603 489.485C312.837 488.725 311.873 488.346 310.707 488.346V488.439C311.85 488.439 312.79 488.81 313.538 489.55L313.603 489.485ZM310.707 488.346C309.542 488.346 308.578 488.725 307.812 489.485L307.877 489.55C308.625 488.81 309.565 488.439 310.707 488.439V488.346ZM307.812 489.485C307.045 490.244 306.658 491.193 306.658 492.33H306.751C306.751 491.217 307.129 490.291 307.877 489.55L307.812 489.485ZM306.658 492.33C306.658 493.467 307.038 494.416 307.804 495.183L307.87 495.117C307.122 494.369 306.751 493.444 306.751 492.33H306.658ZM307.804 495.183C308.571 495.95 309.535 496.329 310.7 496.329V496.236C309.557 496.236 308.618 495.865 307.87 495.117L307.804 495.183ZM310.7 496.329H310.715V496.236H310.7V496.329ZM310.7 494.462C310.091 494.462 309.599 494.264 309.219 493.863L309.152 493.927C309.551 494.348 310.069 494.555 310.7 494.555V494.462ZM309.219 493.863C308.839 493.462 308.648 492.954 308.648 492.337H308.555C308.555 492.975 308.754 493.506 309.152 493.927L309.219 493.863ZM308.648 492.337C308.648 491.72 308.839 491.213 309.219 490.811L309.152 490.748C308.754 491.168 308.555 491.7 308.555 492.337H308.648ZM309.219 490.811C309.599 490.411 310.091 490.213 310.7 490.213V490.12C310.069 490.12 309.551 490.326 309.152 490.748L309.219 490.811ZM310.7 490.213C311.309 490.213 311.801 490.411 312.181 490.811L312.248 490.748C311.849 490.326 311.332 490.12 310.7 490.12V490.213ZM312.181 490.811C312.562 491.213 312.753 491.72 312.753 492.337H312.845C312.845 491.7 312.647 491.168 312.248 490.748L312.181 490.811ZM312.753 492.337C312.753 492.954 312.562 493.462 312.181 493.863L312.248 493.927C312.647 493.506 312.845 492.975 312.845 492.337H312.753ZM312.181 493.863C311.801 494.264 311.309 494.462 310.7 494.462V494.555C311.332 494.555 311.849 494.348 312.248 493.927L312.181 493.863ZM319.73 496.329C320.888 496.329 321.852 495.95 322.619 495.183L322.553 495.117C321.805 495.865 320.865 496.236 319.73 496.236V496.329ZM322.619 495.183C323.385 494.416 323.765 493.467 323.765 492.33H323.672C323.672 493.444 323.301 494.369 322.553 495.117L322.619 495.183ZM323.765 492.33C323.765 491.194 323.385 490.244 322.619 489.485L322.553 489.55C323.301 490.291 323.672 491.217 323.672 492.33H323.765ZM322.619 489.485C321.852 488.725 320.888 488.346 319.723 488.346V488.439C320.866 488.439 321.805 488.81 322.553 489.55L322.619 489.485ZM319.723 488.346C318.558 488.346 317.594 488.725 316.827 489.485L316.892 489.55C317.64 488.81 318.58 488.439 319.723 488.439V488.346ZM316.827 489.485C316.06 490.244 315.674 491.193 315.674 492.33H315.766C315.766 491.217 316.144 490.291 316.892 489.55L316.827 489.485ZM315.674 492.33C315.674 493.467 316.053 494.416 316.82 495.183L316.885 495.117C316.137 494.369 315.766 493.444 315.766 492.33H315.674ZM316.82 495.183C317.586 495.95 318.55 496.329 319.715 496.329V496.236C318.573 496.236 317.633 495.865 316.885 495.117L316.82 495.183ZM319.715 496.329H319.73V496.236H319.715V496.329ZM319.715 494.462C319.106 494.462 318.614 494.264 318.235 493.863L318.167 493.927C318.567 494.348 319.084 494.555 319.715 494.555V494.462ZM318.235 493.863C317.854 493.462 317.663 492.954 317.663 492.337H317.57C317.57 492.975 317.769 493.506 318.167 493.927L318.235 493.863ZM317.663 492.337C317.663 491.72 317.854 491.213 318.235 490.811L318.167 490.748C317.769 491.168 317.57 491.7 317.57 492.337H317.663ZM318.235 490.811C318.614 490.411 319.106 490.213 319.715 490.213V490.12C319.084 490.12 318.567 490.326 318.167 490.748L318.235 490.811ZM319.715 490.213C320.325 490.213 320.817 490.411 321.196 490.811L321.264 490.748C320.864 490.326 320.347 490.12 319.715 490.12V490.213ZM321.196 490.811C321.577 491.213 321.768 491.72 321.768 492.337H321.861C321.861 491.7 321.662 491.168 321.264 490.748L321.196 490.811ZM321.768 492.337C321.768 492.954 321.577 493.462 321.196 493.863L321.264 493.927C321.662 493.506 321.861 492.975 321.861 492.337H321.768ZM321.196 493.863C320.817 494.264 320.325 494.462 319.715 494.462V494.555C320.347 494.555 320.864 494.348 321.264 493.927L321.196 493.863ZM330.837 485.291L330.837 485.245L330.79 485.245V485.291H330.837ZM330.837 489.503L330.8 489.531L330.883 489.638V489.503H330.837ZM330.83 495.165H330.876V495.03L330.793 495.136L330.83 495.165ZM330.83 496.081H330.783V496.127H330.83V496.081ZM332.798 496.081V496.127H332.845V496.081H332.798ZM332.798 485.298H332.845V485.252L332.799 485.252L332.798 485.298ZM328.767 494.544V494.591H328.813V494.544H328.767ZM328.767 494.53V494.484H328.721V494.53H328.767ZM330.79 485.291V489.503H330.883V485.291H330.79ZM330.873 489.475C330.287 488.719 329.472 488.346 328.435 488.346V488.439C329.447 488.439 330.233 488.801 330.8 489.531L330.873 489.475ZM328.435 488.346C327.377 488.346 326.485 488.726 325.769 489.486L325.836 489.549C326.534 488.809 327.402 488.439 328.435 488.439V488.346ZM325.769 489.486C325.053 490.245 324.696 491.202 324.696 492.345H324.789C324.789 491.223 325.138 490.29 325.836 489.549L325.769 489.486ZM324.696 492.345C324.696 493.473 325.053 494.422 325.769 495.189L325.836 495.126C325.138 494.378 324.789 493.452 324.789 492.345H324.696ZM325.769 495.189C326.484 495.956 327.369 496.336 328.428 496.336V496.243C327.395 496.243 326.534 495.874 325.836 495.126L325.769 495.189ZM328.428 496.336C329.458 496.336 330.272 495.955 330.866 495.193L330.793 495.136C330.218 495.874 329.432 496.243 328.428 496.243V496.336ZM330.783 495.165V496.081H330.876V495.165H330.783ZM330.83 496.127H332.798V496.034H330.83V496.127ZM332.845 496.081V485.298H332.752V496.081H332.845ZM332.799 485.252L330.837 485.245L330.837 485.337L332.798 485.345L332.799 485.252ZM328.767 494.498C328.166 494.498 327.673 494.293 327.286 493.892L327.219 493.956C327.625 494.377 328.142 494.591 328.767 494.591V494.498ZM327.286 493.892C326.899 493.491 326.707 492.969 326.707 492.33H326.615C326.615 492.989 326.813 493.535 327.219 493.956L327.286 493.892ZM326.707 492.33C326.707 491.698 326.898 491.184 327.286 490.783L327.219 490.719C326.813 491.14 326.615 491.678 326.615 492.33H326.707ZM327.286 490.783C327.673 490.382 328.165 490.184 328.767 490.184V490.091C328.142 490.091 327.625 490.298 327.219 490.719L327.286 490.783ZM328.767 490.184C329.353 490.184 329.846 490.388 330.249 490.791L330.314 490.725C329.894 490.305 329.378 490.091 328.767 490.091V490.184ZM330.249 490.791C330.65 491.192 330.848 491.699 330.848 492.316H330.941C330.941 491.677 330.735 491.146 330.314 490.725L330.249 490.791ZM330.848 492.316C330.848 492.947 330.65 493.461 330.248 493.87L330.314 493.935C330.735 493.507 330.941 492.968 330.941 492.316H330.848ZM330.248 493.87C329.846 494.279 329.353 494.484 328.767 494.484V494.576C329.378 494.576 329.894 494.362 330.314 493.935L330.248 493.87ZM328.721 494.53V494.544H328.813V494.53H328.721Z" fill="#FFF2DE"/>
<path fill-rule="evenodd" clip-rule="evenodd" d="M187.751 507.93C186.322 505.319 185.318 502.417 184.847 499.302C183.306 489.119 187.873 479.42 195.805 473.926C186.602 471.026 179.371 463.112 177.83 452.929C175.898 440.163 183.564 428.159 195.426 424.245C182.929 410.248 163.836 402.638 143.898 405.655C112.503 410.406 90.9043 439.707 95.6551 471.102C100.406 502.497 129.707 524.096 161.102 519.345C171.176 517.82 180.241 513.768 187.751 507.93ZM126.254 446.029L136.143 436.081C136.338 435.885 136.606 435.885 136.948 436.079L140.656 439.764C140.938 440.117 140.951 440.422 140.695 440.679L138.287 443.102L141.994 446.787C142.312 447.152 142.338 447.47 142.07 447.739L140.483 449.336L140.502 449.464L143.585 452.529C143.817 452.76 143.782 453.065 143.478 453.444L138.734 458.216C138.357 458.522 138.052 458.56 137.819 458.329L126.33 446.907C126.061 446.542 126.035 446.249 126.254 446.029ZM140.675 481.718L140.556 481.753C140.317 481.823 140.214 482.011 140.246 482.318L143.898 494.853C143.971 495.105 144.199 495.197 144.582 495.129L159.744 490.711C160.104 490.563 160.247 490.363 160.173 490.111L156.521 477.576C156.448 477.324 156.259 477.221 155.956 477.266L155.837 477.301C155.362 477.698 153.221 479.732 149.412 483.404C144.245 482.362 141.332 481.8 140.675 481.718Z" fill="#FFF2DE"/>
<path d="M247.454 443.495C246.657 441.721 245.644 440.201 244.304 438.861C243.001 437.558 241.445 436.508 239.707 435.748C237.933 434.988 236.087 434.59 234.096 434.59H224.467L229.282 439.44H234.096C235.399 439.44 236.666 439.694 237.825 440.164C238.983 440.671 240.033 441.395 240.902 442.264C241.807 443.169 242.494 444.182 243.001 445.341C243.508 446.535 243.761 447.766 243.761 449.069C243.761 450.373 243.508 451.603 243.001 452.798C242.494 453.956 241.807 454.97 240.938 455.875C240.069 456.78 239.019 457.468 237.861 457.974C236.702 458.445 235.435 458.698 234.096 458.698H229.282L224.467 463.549H234.096C236.087 463.549 237.969 463.151 239.707 462.391C241.481 461.631 243.037 460.581 244.341 459.278C245.644 457.938 246.657 456.418 247.454 454.644C248.214 452.907 248.576 451.06 248.576 449.069C248.576 447.078 248.214 445.232 247.454 443.495Z" fill="#FFF2DE"/>
<path d="M215.245 433.601C206.415 433.601 199.258 440.758 199.258 449.587H202.471C202.471 442.533 208.19 436.814 215.245 436.814V433.601ZM199.258 449.587C199.258 458.417 206.415 465.574 215.245 465.574V462.361C208.19 462.361 202.471 456.642 202.471 449.587H199.258ZM215.245 465.574C224.074 465.574 231.231 458.417 231.231 449.587H228.018C228.018 456.642 222.299 462.361 215.245 462.361V465.574ZM231.231 449.587C231.231 440.758 224.074 433.601 215.245 433.601V436.814C222.299 436.814 228.018 442.533 228.018 449.587H231.231Z" fill="#FFF2DE"/>
<path d="M199.951 433.633C191.48 433.633 184.612 440.5 184.612 448.972C184.612 457.443 191.48 464.311 199.951 464.311C208.422 464.311 215.29 457.443 215.29 448.972C215.29 440.5 208.422 433.633 199.951 433.633Z" fill="#FFF2DE"/>
</svg>
