<svg width="237" height="285" viewBox="0 0 237 285" fill="none" xmlns="http://www.w3.org/2000/svg">
<path fill-rule="evenodd" clip-rule="evenodd" d="M236.424 226.335C231.227 221.109 226.843 214.898 223.58 207.815C212.906 184.657 217.092 158.448 232.176 139.924C208.293 139.358 185.649 125.516 174.975 102.357C161.595 73.3262 171.565 39.5024 197.084 22.0307C157.729 -2.65739 107.083 -7.61547 61.7424 13.2813C-9.65215 46.1862 -40.8542 130.737 -7.94928 202.132C24.9555 273.526 109.507 304.729 180.901 271.824C203.811 261.265 222.581 245.388 236.424 226.335ZM47.3826 121.342L64.055 90.878C64.383 90.2783 65.0209 90.0918 65.9681 90.3182L77.3217 96.5318C78.2348 97.1775 78.4759 97.8936 78.0451 98.6806L73.9848 106.1L85.3383 112.313C86.3464 112.962 86.625 113.699 86.1736 114.524L83.4975 119.413L83.6302 119.705L93.0726 124.873C93.7847 125.263 93.9097 126.013 93.448 127.123L85.4505 141.737C84.7638 142.725 84.0645 143.024 83.3524 142.634L48.1675 123.378C47.2751 122.695 47.0138 122.016 47.3826 121.342ZM106.022 195.759L105.762 195.924C105.242 196.253 105.126 196.773 105.413 197.482L122.726 224.779C123.073 225.328 123.679 225.39 124.543 224.963L157.561 204.024C158.315 203.424 158.518 202.85 158.169 202.3L140.857 175.003C140.509 174.454 139.99 174.338 139.299 174.654L139.039 174.819C138.184 176.09 134.492 182.402 127.96 193.754C114.953 194.833 107.641 195.501 106.022 195.759Z" fill="white" fill-opacity="0.2"/>
</svg>
